<svg width="50" height="53" viewBox="0 0 50 53" fill="none" xmlns="http://www.w3.org/2000/svg">
<path d="M42.1107 38.9338L39.1611 41.9982L37.3945 40.1545C37.0679 39.8151 36.5381 39.8151 36.2115 40.1545C35.8848 40.4939 35.8848 41.0442 36.2115 41.3836L38.5695 43.8335C38.7257 43.9975 38.9389 44.0896 39.1611 44.0896C39.3832 44.0896 39.596 43.9975 39.7526 43.8335L43.3271 40.1545C43.5647 39.9431 43.6684 39.6109 43.5952 39.2948C43.522 38.9782 43.2844 38.7313 42.9801 38.6552C42.6758 38.5792 42.356 38.687 42.1521 38.9338H42.1107Z" fill="#21406C"/>
<path d="M43.3271 32.9178V30.2343C43.3271 29.7562 42.954 29.3686 42.4939 29.3686H39.9943V28.503C39.9943 27.0688 41.1135 25.9061 42.4939 25.9061C42.954 25.9061 43.3271 25.5185 43.3271 25.0404C43.3271 24.5624 42.954 24.1748 42.4939 24.1748C40.1932 24.1748 38.3278 26.1127 38.3278 28.503V29.3686H35.8282C35.3681 29.3686 34.995 29.7562 34.995 30.2343V32.9178C30.7219 34.9526 28.3903 39.8049 29.3924 44.5757C30.3948 49.3469 34.4604 52.7486 39.161 52.7486C43.8613 52.7486 47.9273 49.3469 48.9297 44.5757C49.9318 39.8049 47.6002 34.9526 43.3271 32.9178ZM39.9943 51.0097V50.144C39.9943 49.666 39.6212 49.2784 39.161 49.2784C38.7009 49.2784 38.3278 49.666 38.3278 50.144V51.0097C34.3546 50.614 31.2097 47.3468 30.8289 43.2189H31.6621C32.1223 43.2189 32.4953 42.8313 32.4953 42.3533C32.4953 41.8752 32.1223 41.4876 31.6621 41.4876H30.8289C31.143 38.2546 33.1731 35.4767 36.0865 34.2941C36.4071 34.1656 36.6187 33.846 36.6199 33.4889V31.0999H41.6192V33.4889C41.62 33.846 41.8316 34.1656 42.1522 34.2941C45.0981 35.4509 47.1644 38.2338 47.4932 41.4876H46.66C46.1998 41.4876 45.8267 41.8752 45.8267 42.3533C45.8267 42.8313 46.1998 43.2189 46.66 43.2189H47.4932C47.1124 47.3468 43.9675 50.614 39.9943 51.0097Z" fill="#21406C"/>
<path d="M26.8377 45.8158C26.6628 45.8158 4.16606 45.8158 4.16606 45.8158C2.78565 45.8158 1.66642 44.653 1.66642 43.2189V15.5183H44.9935V31.4981C44.9935 31.9761 45.3665 32.3637 45.8267 32.3637C46.2868 32.3637 46.6599 31.9761 46.6599 31.4981V9.45883C46.6599 7.06859 44.7945 5.13061 42.4938 5.13061H40.8274V4.26497C40.8274 3.78692 40.4543 3.39933 39.9942 3.39933C39.5341 3.39933 39.161 3.78692 39.161 4.26497V7.72754C39.161 8.68364 38.4148 9.45883 37.4946 9.45883C36.5743 9.45883 35.8281 8.68364 35.8281 7.72754V4.26497C35.8281 3.30887 36.5743 2.53368 37.4946 2.53368C37.9547 2.53368 38.3278 2.14609 38.3278 1.66804C38.3278 1.18999 37.9547 0.802399 37.4946 0.802399C35.654 0.802399 34.1617 2.35278 34.1617 4.26497V5.13061H26.6628V4.26497C26.6628 3.78692 26.2897 3.39933 25.8296 3.39933C25.3694 3.39933 24.9964 3.78692 24.9964 4.26497V7.72754C24.9964 8.68364 24.2502 9.45883 23.3299 9.45883C22.4097 9.45883 21.6635 8.68364 21.6635 7.72754V4.26497C21.6635 3.30887 22.4097 2.53368 23.3299 2.53368C23.7901 2.53368 24.1632 2.14609 24.1632 1.66804C24.1632 1.18999 23.7901 0.802399 23.3299 0.802399C21.4894 0.802399 19.9971 2.35278 19.9971 4.26497V5.13061H12.4982V4.26497C12.4982 3.78692 12.1251 3.39933 11.665 3.39933C11.2048 3.39933 10.8318 3.78692 10.8318 4.26497V7.72754C10.8318 8.68364 10.0856 9.45883 9.16534 9.45883C8.24506 9.45883 7.49891 8.68364 7.49891 7.72754V4.26497C7.49891 3.30887 8.24506 2.53368 9.16534 2.53368C9.62547 2.53368 9.99855 2.14609 9.99855 1.66804C9.99855 1.18999 9.62547 0.802399 9.16534 0.802399C7.32478 0.802399 5.83249 2.35278 5.83249 4.26497V5.13061H4.16606C1.86537 5.13061 0 7.06859 0 9.45883V43.2189C0 45.6091 1.86537 47.5471 4.16606 47.5471H23.3299C27.7043 47.5471 27.7043 47.5471 27.7043 46.6815C27.7055 46.4515 27.6185 46.23 27.4626 46.0669C27.2975 45.8961 27.0709 45.8048 26.8377 45.8158ZM4.16606 6.8619H5.83249V7.72754C5.83249 9.63973 7.32478 11.1901 9.16534 11.1901C11.0059 11.1901 12.4982 9.63973 12.4982 7.72754V6.8619H19.9971V7.72754C19.9971 9.63973 21.4894 11.1901 23.3299 11.1901C25.1705 11.1901 26.6628 9.63973 26.6628 7.72754V6.8619H34.1617V7.72754C34.1617 9.63973 35.654 11.1901 37.4946 11.1901C39.3351 11.1901 40.8274 9.63973 40.8274 7.72754V6.8619H42.4938C43.8742 6.8619 44.9935 8.02468 44.9935 9.45883V13.787H1.66642V9.45883C1.66642 8.02468 2.78565 6.8619 4.16606 6.8619Z" fill="#21406C"/>
<path d="M14.9979 18.9809C14.9979 18.5028 14.6248 18.1152 14.1647 18.1152H7.49898C7.03885 18.1152 6.66577 18.5028 6.66577 18.9809V25.906C6.66577 26.3841 7.03885 26.7717 7.49898 26.7717H14.1647C14.6248 26.7717 14.9979 26.3841 14.9979 25.906V18.9809ZM13.3315 25.0404H8.3322V19.8465H13.3315V25.0404Z" fill="#21406C"/>
<path d="M14.1647 31.9655C14.6248 31.9655 14.9979 31.5779 14.9979 31.0999C14.9979 30.6218 14.6248 30.2342 14.1647 30.2342H7.49898C7.03885 30.2342 6.66577 30.6218 6.66577 31.0999V38.025C6.66577 38.5031 7.03885 38.8907 7.49898 38.8907H14.1647C14.6248 38.8907 14.9979 38.5031 14.9979 38.025V34.5624C14.9979 34.0844 14.6248 33.6968 14.1647 33.6968C13.7045 33.6968 13.3315 34.0844 13.3315 34.5624V37.1594H8.3322V31.9655H14.1647Z" fill="#21406C"/>
<path d="M19.164 30.2342C18.7039 30.2342 18.3308 30.6218 18.3308 31.0999V38.025C18.3308 38.5031 18.7039 38.8907 19.164 38.8907H25.8297C26.2898 38.8907 26.6629 38.5031 26.6629 38.025V31.0999C26.6629 30.6218 26.2898 30.2342 25.8297 30.2342H19.164ZM24.9965 37.1594H19.9972V31.9655H24.9965V37.1594Z" fill="#21406C"/>
<path d="M37.4946 25.0404C37.9548 25.0404 38.3278 24.6528 38.3278 24.1747V18.9809C38.3278 18.5028 37.9548 18.1152 37.4946 18.1152H30.8289C30.3688 18.1152 29.9957 18.5028 29.9957 18.9809V25.906C29.9957 26.3841 30.3688 26.7717 30.8289 26.7717C31.2891 26.7717 31.6621 26.3841 31.6621 25.906V19.8465H36.6614V24.1747C36.6614 24.6528 37.0345 25.0404 37.4946 25.0404Z" fill="#21406C"/>
<path d="M26.4213 18.3663C26.2646 18.2023 26.0519 18.1102 25.8297 18.1102C25.6076 18.1102 25.3944 18.2023 25.2382 18.3663L22.4969 21.2228L19.7556 18.3663C19.4289 18.0269 18.8992 18.0269 18.5725 18.3663C18.2458 18.7057 18.2458 19.256 18.5725 19.5955L21.3219 22.4435L18.5725 25.2915C18.4146 25.4538 18.3259 25.6752 18.3259 25.906C18.3259 26.1368 18.4146 26.3583 18.5725 26.5206C18.7287 26.6846 18.9419 26.7767 19.164 26.7767C19.3862 26.7767 19.5989 26.6846 19.7556 26.5206L22.4969 23.6641L25.2382 26.5206C25.3944 26.6846 25.6076 26.7767 25.8297 26.7767C26.0519 26.7767 26.2646 26.6846 26.4213 26.5206C26.5791 26.3583 26.6678 26.1368 26.6678 25.906C26.6678 25.6752 26.5791 25.4538 26.4213 25.2915L23.6718 22.4435L26.4213 19.5955C26.5791 19.4331 26.6678 19.2117 26.6678 18.9809C26.6678 18.7501 26.5791 18.5286 26.4213 18.3663Z" fill="#21406C"/>
</svg>
