<svg width="29" height="34" viewBox="0 0 29 34" fill="none" xmlns="http://www.w3.org/2000/svg">
<path d="M4.50091 33.1295H13.8632V21.353H10.4995V17.4706H13.8632V12.6177C13.8632 9.94174 15.7494 7.76473 18.0679 7.76473H22.2725V11.6471H18.9088C17.9814 11.6471 17.227 12.5178 17.227 13.5883V17.4706H22.1208L21.5601 21.353H17.227V33.1295H24.7953C27.1138 33.1295 28.9999 30.9525 28.9999 28.2766V4.85296C28.9999 2.17701 27.1138 0 24.7953 0H4.50091C2.18244 0 0.296265 2.17701 0.296265 4.85296V28.2766C0.296265 30.9525 2.18244 33.1295 4.50091 33.1295ZM1.97812 4.85296C1.97812 3.24744 3.10987 1.94118 4.50091 1.94118H24.7953C26.1863 1.94118 27.3181 3.24744 27.3181 4.85296V28.2766C27.3181 29.8821 26.1863 31.1883 24.7953 31.1883H18.9088V23.2942H22.9849L24.1061 15.5295H18.9088V13.5883H23.9544V5.82355H18.0679C14.822 5.82355 12.1814 8.8713 12.1814 12.6177V15.5295H8.81767V23.2942H12.1814V31.1883H4.50091C3.10987 31.1883 1.97812 29.8821 1.97812 28.2766V4.85296Z" fill="black"/>
</svg>
