<svg width="29" height="34" viewBox="0 0 29 34" fill="none" xmlns="http://www.w3.org/2000/svg">
<path d="M4.35286 34H24.6473C26.9657 34 28.8519 31.823 28.8519 29.147V5.72344C28.8519 3.04749 26.9657 0.870483 24.6473 0.870483H4.35286C2.0344 0.870483 0.148224 3.04749 0.148224 5.72344V29.147C0.148224 31.823 2.0344 34 4.35286 34ZM1.83008 5.72344C1.83008 4.11792 2.96183 2.81167 4.35286 2.81167H24.6473C26.0383 2.81167 27.17 4.11792 27.17 5.72344V29.147C27.17 30.7526 26.0383 32.0588 24.6473 32.0588H4.35286C2.96183 32.0588 1.83008 30.7526 1.83008 29.147V5.72344Z" fill="black"/>
<path d="M14.5 26.1705C18.6731 26.1705 22.0684 22.2518 22.0684 17.4352C22.0684 12.6187 18.6731 8.69989 14.5 8.69989C10.3269 8.69989 6.93167 12.6187 6.93167 17.4352C6.93167 22.2518 10.3269 26.1705 14.5 26.1705ZM14.5 10.6411C17.7459 10.6411 20.3865 13.6888 20.3865 17.4352C20.3865 21.1816 17.7459 24.2294 14.5 24.2294C11.2541 24.2294 8.61353 21.1816 8.61353 17.4352C8.61353 13.6888 11.2541 10.6411 14.5 10.6411Z" fill="black"/>
<path d="M22.4315 10.1699C23.8059 10.1699 24.9242 8.87925 24.9242 7.29288C24.9242 5.70651 23.8059 4.41583 22.4315 4.41583C21.057 4.41583 19.9388 5.70651 19.9388 7.29288C19.9388 8.87925 21.057 10.1699 22.4315 10.1699ZM22.4315 6.33386C22.8895 6.33386 23.2624 6.76417 23.2624 7.29288C23.2624 7.82158 22.8895 8.25189 22.4315 8.25189C21.9734 8.25189 21.6006 7.82158 21.6006 7.29288C21.6006 6.76417 21.9734 6.33386 22.4315 6.33386Z" fill="black"/>
</svg>
