<svg width="63" height="53" viewBox="0 0 63 53" fill="none" xmlns="http://www.w3.org/2000/svg">
<path d="M28 45.8043H27.881C27.5334 45.78 27.2028 45.6541 26.936 45.4444C26.8629 45.3864 26.7957 45.3221 26.7353 45.2525L5.05866 21.0983C4.88964 20.9178 4.7703 20.7014 4.711 20.468C4.711 20.4396 4.697 20.4113 4.69 20.3829C4.62389 20.0175 4.70718 19.6422 4.92333 19.3316L4.96766 19.2705L13.4377 8.07027C13.468 8.02665 13.4983 7.98738 13.5333 7.95249C13.7811 7.67726 14.1249 7.49265 14.504 7.43119C14.5689 7.42194 14.6344 7.41684 14.7 7.41592L27.8833 6.54346H28H28.1143L41.3 7.41592C41.3729 7.41978 41.4454 7.42853 41.517 7.44209C41.933 7.51449 42.3028 7.735 42.5483 8.05718L51.0347 19.2771C51.0522 19.2988 51.0686 19.3214 51.0837 19.3447C51.2779 19.6227 51.3659 19.954 51.3333 20.2848C51.3235 20.3695 51.3063 20.4534 51.282 20.5356C51.2182 20.7447 51.1049 20.9378 50.9507 21.1005L29.267 45.2503C29.2309 45.2926 29.1919 45.3327 29.1503 45.3703C29.0141 45.494 28.8563 45.595 28.6837 45.6691C28.542 45.7289 28.3919 45.7693 28.238 45.7891C28.1591 45.7992 28.0796 45.8043 28 45.8043ZM18.5407 21.6174L28 40.707L37.4593 21.6174H18.5407ZM41.034 21.6174L34.5893 34.6237L46.256 21.6174H41.034ZM9.737 21.6174L21.4037 34.6237L14.966 21.6174H9.737ZM42.392 13.0738L41.7853 18.638H46.5967L42.392 13.0738ZM28 10.62L20.7013 18.638H35.2987L28 10.62ZM13.608 13.0738L9.40333 18.638H14.2147L13.608 13.0738ZM31.4463 9.75194L38.619 17.6325L39.4333 10.2754L31.4463 9.75194ZM24.549 9.75194L16.5667 10.2754L17.3717 17.6325L24.549 9.75194Z" fill="#2E3A59"/>
</svg>
