<svg width="50" height="53" viewBox="0 0 50 53" fill="none" xmlns="http://www.w3.org/2000/svg">
<path d="M49.9035 13.1069C49.7314 12.4421 49.3116 11.8753 48.7371 11.5317C48.1623 11.1864 47.4788 11.0929 46.8376 11.2717C46.1973 11.4509 45.6517 11.8867 45.3209 12.4835L44.9043 13.2367C44.5085 13.0004 44.0028 13.1395 43.7713 13.5486L41.655 17.2964L40.93 16.8636C40.738 16.7482 40.5093 16.7169 40.2953 16.777C40.0809 16.8374 39.8987 16.9836 39.7884 17.184C39.5626 17.5978 39.7002 18.1236 40.0968 18.3611L40.8218 18.7939L33.7397 31.5445L31.9899 36.4009L31.1567 38.0193C30.6689 38.901 30.721 39.997 31.2901 40.8241L29.4154 43.2131L28.8906 41.8457C28.6539 41.2362 28.1059 40.8187 27.4757 40.7675C26.8451 40.7159 26.2409 41.0397 25.9159 41.6031L25.616 42.131L25.3329 38.6686C25.2678 37.8494 24.6571 37.1909 23.872 37.092C23.0864 36.9935 22.3427 37.4825 22.0917 38.2619L20.042 44.6501C19.8988 45.102 20.1332 45.5889 20.5669 45.741C20.6482 45.7803 20.7357 45.804 20.8252 45.8099C21.1832 45.8112 21.5022 45.5741 21.6169 45.2216L23.658 38.8334L23.9497 42.3474C24.0099 43.0972 24.5286 43.7207 25.234 43.8906C25.9395 44.0605 26.6693 43.7376 27.0408 43.0922L27.3491 42.5638L27.8658 43.9231C28.0851 44.4959 28.581 44.9046 29.1681 44.9954C29.7552 45.0863 30.3442 44.8458 30.7153 44.3644L32.6567 41.8111C32.8715 41.8694 33.0928 41.8986 33.3149 41.8977C34.2079 41.9049 35.037 41.4163 35.4894 40.6162L36.3226 39.1707L39.4971 35.163L46.6541 22.2564L47.3791 22.6892C47.5723 22.8042 47.7131 22.994 47.7705 23.2176C47.8282 23.4395 47.7981 23.6761 47.6875 23.8752L44.3547 29.8741C44.229 30.0711 44.1863 30.3129 44.2367 30.5436C44.2872 30.774 44.4259 30.9731 44.6212 31.0944C44.8132 31.2102 45.0419 31.2415 45.2558 31.1814C45.4702 31.121 45.6525 30.9748 45.7628 30.7744L49.0955 24.7755C49.4279 24.1783 49.5178 23.4682 49.3453 22.8021C49.1728 22.1368 48.7534 21.57 48.1789 21.2264L47.454 20.7936L49.5369 17.0454C49.7644 16.6341 49.6305 16.1091 49.2371 15.8682L49.6537 15.115C49.995 14.5085 50.0853 13.7841 49.9035 13.1069ZM46.7623 13.3491C46.8726 13.1488 47.0557 13.0021 47.2709 12.9425C47.4849 12.8876 47.7111 12.9184 47.9039 13.0292C48.0972 13.1437 48.2379 13.3339 48.2957 13.5571C48.3486 13.7794 48.3189 14.0144 48.2123 14.2148L47.7957 14.9679L46.3458 14.1023L46.7623 13.3491ZM35.406 37.5176L34.9894 37.2666L33.7563 36.5218L34.9394 33.2326L37.5639 34.8079L35.406 37.5176ZM32.9065 40.019C32.5546 39.7641 32.4463 39.2738 32.6567 38.885L33.0733 38.1322L34.5228 38.9978L34.1062 39.7421C33.9895 39.9526 33.7934 40.1022 33.5651 40.1551C33.3369 40.2075 33.0981 40.1584 32.9065 40.019ZM38.5138 33.3886L35.631 31.6574L42.2966 19.6595L45.1794 21.3908L38.5138 33.3886ZM46.0126 19.8933L43.1297 18.162L44.7961 15.167L47.6789 16.8983L46.0126 19.8933Z" fill="#21406C"/>
<path d="M13.1476 39.5908L10.1985 42.6467L8.43203 40.8115C8.10697 40.4759 7.58216 40.4759 7.2571 40.8115C7.09925 40.9742 7.01056 41.1953 7.01056 41.426C7.01056 41.6568 7.09925 41.8783 7.2571 42.0406L9.02356 43.8758C9.33601 44.1979 9.7583 44.3784 10.1985 44.3779C10.6411 44.3805 11.0671 44.2 11.3816 43.8758L14.3225 40.8115C14.6057 40.4679 14.5866 39.956 14.279 39.6365C13.971 39.3165 13.4784 39.2967 13.1476 39.5908Z" fill="#21406C"/>
<path d="M3.33282 41.9194C3.33282 45.9833 6.50367 49.2772 10.415 49.2772C14.3262 49.2772 17.4971 45.9833 17.4971 41.9194C17.4971 41.4413 17.124 41.0538 16.6639 41.0538C16.2038 41.0538 15.8307 41.4413 15.8307 41.9194C15.8307 45.0268 13.406 47.5459 10.415 47.5459C7.42392 47.5459 4.99921 45.0268 4.99921 41.9194C4.99921 38.8119 7.42392 36.2928 10.415 36.2928C11.5874 36.2895 12.7286 36.6846 13.6643 37.4184C14.0325 37.7054 14.5549 37.6276 14.8307 37.2451C15.1069 36.8626 15.0325 36.3203 14.6643 36.0333C12.5183 34.3612 9.64685 34.0924 7.24777 35.3385C4.84827 36.5849 3.33282 39.1327 3.33282 41.9194Z" fill="#21406C"/>
<path d="M29.9948 7.72727C30.455 7.72727 30.828 7.34011 30.828 6.86165C30.828 6.38362 30.455 5.99603 29.9948 5.99603H8.33185C7.87172 5.99603 7.49866 6.38362 7.49866 6.86165V10.3241C7.49866 10.8026 7.87172 11.1898 8.33185 11.1898H29.9948C30.455 11.1898 30.828 10.8026 30.828 10.3241C30.828 9.8461 30.455 9.45852 29.9948 9.45852H9.16504V7.72727H29.9948Z" fill="#21406C"/>
<path d="M10.8315 12.9211C10.3714 12.9211 9.99829 13.3087 9.99829 13.7867C9.99829 14.2652 10.3714 14.6523 10.8315 14.6523H27.4953C27.9554 14.6523 28.3285 14.2652 28.3285 13.7867C28.3285 13.3087 27.9554 12.9211 27.4953 12.9211H10.8315Z" fill="#21406C"/>
<path d="M32.4945 18.9804H14.1643C13.7042 18.9804 13.3311 19.3679 13.3311 19.846C13.3311 20.3244 13.7042 20.7116 14.1643 20.7116H32.4945C32.9546 20.7116 33.3277 20.3244 33.3277 19.846C33.3277 19.3679 32.9546 18.9804 32.4945 18.9804Z" fill="#21406C"/>
<path d="M24.1625 25.0398C24.1625 24.5617 23.7895 24.1741 23.3294 24.1741H6.66553C6.2054 24.1741 5.83234 24.5617 5.83234 25.0398C5.83234 25.5182 6.2054 25.9054 6.66553 25.9054H23.3294C23.7895 25.9054 24.1625 25.5182 24.1625 25.0398Z" fill="#21406C"/>
<path d="M32.4944 24.1741H26.6621C26.202 24.1741 25.8289 24.5617 25.8289 25.0398C25.8289 25.5182 26.202 25.9054 26.6621 25.9054H32.4944C32.9546 25.9054 33.3276 25.5182 33.3276 25.0398C33.3276 24.5617 32.9546 24.1741 32.4944 24.1741Z" fill="#21406C"/>
<path d="M14.9974 30.2335C15.4576 30.2335 15.8306 29.8463 15.8306 29.3679C15.8306 28.8898 15.4576 28.5022 14.9974 28.5022H6.66553C6.2054 28.5022 5.83234 28.8898 5.83234 29.3679C5.83234 29.8463 6.2054 30.2335 6.66553 30.2335H14.9974Z" fill="#21406C"/>
<path d="M18.3301 30.2335H24.1625C24.6226 30.2335 24.9957 29.8463 24.9957 29.3679C24.9957 28.8898 24.6226 28.5022 24.1625 28.5022H18.3301C17.87 28.5022 17.4969 28.8898 17.4969 29.3679C17.4969 29.8463 17.87 30.2335 18.3301 30.2335Z" fill="#21406C"/>
<path d="M37.4936 40.621C37.0335 40.621 36.6604 41.0085 36.6604 41.4866V50.1428C36.6604 50.6213 36.2874 51.0084 35.8272 51.0084H2.49957C2.03945 51.0084 1.66638 50.6213 1.66638 50.1428V3.39926C1.66638 2.92123 2.03945 2.53364 2.49957 2.53364H35.8272C36.2874 2.53364 36.6604 2.92123 36.6604 3.39926V19.6559C36.6604 20.1339 37.0335 20.5215 37.4936 20.5215C37.9537 20.5215 38.3268 20.1339 38.3268 19.6559V3.39926C38.3268 1.96515 37.2076 0.802399 35.8272 0.802399H2.49957C1.11919 0.802399 0 1.96515 0 3.39926V50.1428C0 51.5773 1.11919 52.7397 2.49957 52.7397H35.8272C37.2076 52.7397 38.3268 51.5773 38.3268 50.1428V41.4866C38.3268 41.0085 37.9537 40.621 37.4936 40.621Z" fill="#21406C"/>
</svg>
