<svg width="50" height="53" viewBox="0 0 50 53" fill="none" xmlns="http://www.w3.org/2000/svg">
<path d="M48.3277 37.9653V35.5758H49.1609C49.3908 35.5775 49.6109 35.4803 49.7692 35.3074C49.9107 35.143 49.9909 34.9308 49.9941 34.7102L48.5026 5.27746C48.3606 2.89518 46.459 1.0383 44.1615 1.0383C41.864 1.0383 39.9624 2.89518 39.8204 5.27746L38.3288 34.7102C38.3219 34.946 38.4025 35.1751 38.5538 35.351C38.719 35.5078 38.9383 35.5889 39.1621 35.5758H39.9953V37.9653L38.4204 41.2462C38.3016 41.4909 38.3016 41.7801 38.4204 42.0252L43.4198 52.4132C43.4605 52.5088 43.5203 52.5942 43.5947 52.6643C43.692 52.7577 43.8092 52.8262 43.9365 52.8634H44.3946C44.5224 52.8262 44.6395 52.7577 44.7364 52.6643C44.8112 52.5942 44.8706 52.5088 44.9113 52.4132L49.9107 42.0252C50.0295 41.7801 50.0295 41.4909 49.9107 41.2462L48.3277 37.9653ZM40.0368 33.8445L40.3871 26.9192H47.9359L48.3277 33.8445H40.0368ZM41.4868 5.32099C41.4868 3.78621 42.6842 2.54181 44.1615 2.54181C45.6388 2.54181 46.8362 3.78621 46.8362 5.32099L47.8443 25.2314H40.4787L40.5702 23.5H45.2112C45.6717 23.5 46.0444 23.1124 46.0444 22.6343C46.0444 22.1559 45.6717 21.7687 45.2112 21.7687H40.6536L41.4868 5.32099ZM46.6612 35.5758V37.3072H41.6618V35.5758H46.6612ZM44.9947 48.3533V42.5012H45.828C46.2881 42.5012 46.6612 42.1136 46.6612 41.6355C46.6612 41.1574 46.2881 40.7698 45.828 40.7698H42.495C42.0349 40.7698 41.6618 41.1574 41.6618 41.6355C41.6618 42.1136 42.0349 42.5012 42.495 42.5012H43.3283V48.3533L40.0954 41.6355L41.3453 39.0385H46.9777L48.2276 41.6355L44.9947 48.3533Z" fill="#21406C"/>
<path d="M28.3301 12.2028C28.7902 12.2028 29.1633 11.8152 29.1633 11.3371C29.1633 10.8591 28.7902 10.4715 28.3301 10.4715H6.66594C6.20579 10.4715 5.8327 10.8591 5.8327 11.3371V14.7998C5.8327 15.2779 6.20579 15.6655 6.66594 15.6655H28.3301C28.7902 15.6655 29.1633 15.2779 29.1633 14.7998C29.1633 14.3218 28.7902 13.9341 28.3301 13.9341H7.49917V12.2028H28.3301Z" fill="#21406C"/>
<path d="M29.1633 19.9938C29.1633 19.5157 28.7902 19.1281 28.3301 19.1281H9.99889C9.53873 19.1281 9.16565 19.5157 9.16565 19.9938C9.16565 20.4719 9.53873 20.8595 9.99889 20.8595H28.3301C28.7902 20.8595 29.1633 20.4719 29.1633 19.9938Z" fill="#21406C"/>
<path d="M4.99945 24.3221C4.99945 24.8002 5.37254 25.1878 5.83269 25.1878H19.1645C19.6246 25.1878 19.9977 24.8002 19.9977 24.3221C19.9977 23.844 19.6246 23.4564 19.1645 23.4564H5.83269C5.37254 23.4564 4.99945 23.844 4.99945 24.3221Z" fill="#21406C"/>
<path d="M24.1639 23.4564C23.7038 23.4564 23.3307 23.844 23.3307 24.3221C23.3307 24.8002 23.7038 25.1878 24.1639 25.1878H27.4969C27.957 25.1878 28.3301 24.8002 28.3301 24.3221C28.3301 23.844 27.957 23.4564 27.4969 23.4564H24.1639Z" fill="#21406C"/>
<path d="M16.6648 28.6504C16.6648 28.1724 16.2917 27.7848 15.8315 27.7848H5.83269C5.37254 27.7848 4.99945 28.1724 4.99945 28.6504C4.99945 29.1285 5.37254 29.5161 5.83269 29.5161H15.8315C16.2917 29.5161 16.6648 29.1285 16.6648 28.6504Z" fill="#21406C"/>
<path d="M15.8315 32.9789C15.8315 32.5008 15.4584 32.1132 14.9983 32.1132H5.83269C5.37254 32.1132 4.99945 32.5008 4.99945 32.9789C4.99945 33.4569 5.37254 33.8445 5.83269 33.8445H14.9983C15.4584 33.8445 15.8315 33.4569 15.8315 32.9789Z" fill="#21406C"/>
<path d="M5.83269 36.4415C5.37254 36.4415 4.99945 36.8291 4.99945 37.3072C4.99945 37.7852 5.37254 38.1728 5.83269 38.1728H11.6653C12.1255 38.1728 12.4986 37.7852 12.4986 37.3072C12.4986 36.8291 12.1255 36.4415 11.6653 36.4415H5.83269Z" fill="#21406C"/>
<path d="M32.4962 0.949066H2.49971C1.11925 0.949066 0 2.11188 0 3.54607V43.3668C0 44.801 1.11925 45.9638 2.49971 45.9638H16.6647C17.1249 45.9638 17.498 45.5762 17.498 45.0981C17.498 44.6201 17.1249 44.2325 16.6647 44.2325H2.49971C2.03956 44.2325 1.66647 43.8449 1.66647 43.3668V8.74008H33.3295V43.3668C33.3295 43.8449 32.9564 44.2325 32.4962 44.2325H29.9965C29.5364 44.2325 29.1633 44.6201 29.1633 45.0981C29.1633 45.5762 29.5364 45.9638 29.9965 45.9638H32.4962C33.8767 45.9638 34.9959 44.801 34.9959 43.3668V3.54607C34.9959 2.11188 33.8767 0.949066 32.4962 0.949066ZM1.66647 7.00874V3.54607C1.66647 3.06801 2.03956 2.6804 2.49971 2.6804H32.4962C32.9564 2.6804 33.3295 3.06801 33.3295 3.54607V7.00874H1.66647Z" fill="#21406C"/>
<path d="M23.3306 32.9788C21.9501 32.9788 20.8309 34.1416 20.8309 35.5758C20.8309 37.01 21.9501 38.1728 23.3306 38.1728C24.711 38.1728 25.8303 37.01 25.8303 35.5758C25.8303 34.1416 24.711 32.9788 23.3306 32.9788ZM23.3306 36.4414C22.8704 36.4414 22.4973 36.0538 22.4973 35.5758C22.4973 35.0977 22.8704 34.7101 23.3306 34.7101C23.7907 34.7101 24.1638 35.0977 24.1638 35.5758C24.1638 36.0538 23.7907 36.4414 23.3306 36.4414Z" fill="#21406C"/>
<path d="M29.9965 35.5758C29.9953 34.6137 29.4826 33.7307 28.6632 33.2818C28.9358 32.3621 28.6966 31.3616 28.042 30.681C27.3869 30.0009 26.4239 29.7524 25.5386 30.0356C25.1049 29.1868 24.2558 28.6559 23.3306 28.6559C22.4054 28.6559 21.5563 29.1868 21.1226 30.0356C20.2373 29.7524 19.2743 30.0009 18.6192 30.681C17.9646 31.3616 17.7254 32.3621 17.998 33.2818C17.1806 33.7324 16.67 34.6146 16.67 35.5758C16.67 36.537 17.1806 37.4195 17.998 37.8697C17.7254 38.7874 17.9626 39.7862 18.6143 40.4667C18.7771 40.6354 18.9622 40.7782 19.1644 40.8911V52.0235C19.166 52.373 19.3699 52.6871 19.6811 52.8198C19.9911 52.9555 20.3496 52.8836 20.5892 52.6381L23.3306 49.7815L26.072 52.6381C26.229 52.8004 26.4422 52.8904 26.6635 52.8891C26.773 52.8921 26.8812 52.8684 26.9801 52.8198C27.2913 52.6871 27.4951 52.373 27.4968 52.0235V40.8995C27.699 40.7867 27.8841 40.6438 28.0468 40.4756C28.6986 39.7946 28.9358 38.7962 28.6632 37.8786C29.4851 37.428 29.9985 36.5412 29.9965 35.5758ZM23.9222 47.9462C23.7659 47.7822 23.5527 47.6901 23.3306 47.6901C23.1084 47.6901 22.8953 47.7822 22.739 47.9462L20.8309 49.9371V41.1942L21.1226 41.116C21.5563 41.9651 22.4054 42.4956 23.3306 42.4956C24.2558 42.4956 25.1049 41.9651 25.5386 41.116L25.8303 41.1942V49.9371L23.9222 47.9462ZM27.4968 36.4414H27.3552C27.0159 36.4397 26.7091 36.6519 26.5801 36.9783C26.452 37.3025 26.5244 37.6748 26.7636 37.9217L26.8637 38.0257C27.1867 38.3634 27.1867 38.9087 26.8637 39.2464C26.7718 39.3466 26.657 39.421 26.5301 39.4628H26.4052C26.1428 39.5051 25.8767 39.4151 25.6887 39.2202L25.5886 39.1162C25.3502 38.8668 24.9901 38.7916 24.6777 38.9264C24.3648 39.0613 24.1618 39.3796 24.1638 39.7312V39.9041C24.1638 40.3822 23.7907 40.7698 23.3306 40.7698C22.8704 40.7698 22.4974 40.3822 22.4974 39.9041V39.757C22.499 39.4045 22.2947 39.0858 21.9806 38.9518C21.8802 38.9104 21.7723 38.8901 21.6641 38.8913C21.4428 38.8901 21.2296 38.9805 21.0725 39.1424L20.9725 39.2464C20.7845 39.4413 20.5184 39.5313 20.256 39.4886H20.1311C20.0041 39.4472 19.8894 39.3728 19.7975 39.2722C19.4744 38.9345 19.4744 38.3892 19.7975 38.0515L19.9061 37.9479C20.1453 37.7006 20.2177 37.3282 20.0892 37.004C19.9602 36.6781 19.6538 36.4655 19.3145 36.4676H19.1644C18.7043 36.4676 18.3312 36.08 18.3312 35.602C18.3312 35.1235 18.7043 34.7363 19.1644 34.7363H19.306C19.6453 34.738 19.9521 34.5254 20.081 34.1995C20.2092 33.8753 20.1368 33.5029 19.8976 33.2556L19.7975 33.1521C19.4708 32.8148 19.4691 32.2665 19.7934 31.9271C20.1181 31.5877 20.6458 31.5856 20.9725 31.9229L21.0725 32.0353C21.3102 32.2839 21.669 32.3591 21.9806 32.2255C22.2947 32.0915 22.499 31.7733 22.4974 31.4207V31.2474C22.4974 30.7694 22.8704 30.3818 23.3306 30.3818C23.7907 30.3818 24.1638 30.7694 24.1638 31.2474V31.3945C24.1622 31.7475 24.3664 32.0658 24.6805 32.1997C24.9922 32.3329 25.351 32.2581 25.5886 32.0091L25.6887 31.9056C26.013 31.5661 26.5411 31.564 26.8678 31.9009C27.1945 32.2382 27.1961 32.7864 26.8718 33.1259L26.7636 33.2298C26.5244 33.4767 26.452 33.8495 26.5801 34.1733C26.7091 34.4996 27.0159 34.7118 27.3552 34.7101H27.4968C27.9569 34.7101 28.33 35.0977 28.33 35.5758C28.33 36.0538 27.9569 36.4414 27.4968 36.4414Z" fill="#21406C"/>
</svg>
