<svg width="50" height="53" viewBox="0 0 50 53" fill="none" xmlns="http://www.w3.org/2000/svg">
<path d="M49.1667 26.0564H30.1082C29.648 26.0564 29.2749 26.444 29.2749 26.9222C29.2749 27.4003 29.648 27.7879 30.1082 27.7879H48.3333V36.4456H44.1667V30.3852C44.1667 29.9071 43.7935 29.5195 43.3333 29.5195C42.8731 29.5195 42.5 29.9071 42.5 30.3852V36.4456H20V27.7879H25C25.4602 27.7879 25.8333 27.4003 25.8333 26.9222C25.8333 26.444 25.4602 26.0564 25 26.0564H19.1667C18.7065 26.0564 18.3333 26.444 18.3333 26.9222V37.3114C18.3333 37.7895 18.7065 38.1771 19.1667 38.1771H26.6667V39.9087H19.1667C18.7065 39.9087 18.3333 40.2963 18.3333 40.7745V46.8348H15.8333V45.9691C15.8333 45.4909 15.4602 45.1033 15 45.1033H12.5V40.7745C12.5 40.2963 12.1269 39.9087 11.6667 39.9087C11.2065 39.9087 10.8333 40.2963 10.8333 40.7745V45.9691C10.8333 46.4472 11.2065 46.8348 11.6667 46.8348H14.1667V48.5664H5.83333V46.8348H8.33333C8.79354 46.8348 9.16667 46.4472 9.16667 45.9691V40.7745C9.16667 40.2963 8.79354 39.9087 8.33333 39.9087C7.87313 39.9087 7.5 40.2963 7.5 40.7745V45.1033H5C4.53979 45.1033 4.16667 45.4909 4.16667 45.9691V46.8348H0.833333C0.373128 46.8348 0 47.2225 0 47.7006C0 48.1787 0.373128 48.5664 0.833333 48.5664H4.16667V49.4321C4.16667 49.9103 4.53979 50.2979 5 50.2979H15C15.4602 50.2979 15.8333 49.9103 15.8333 49.4321V48.5664H18.3333V51.1637C18.3333 51.6418 18.7065 52.0294 19.1667 52.0294H49.1667C49.6269 52.0294 50 51.6418 50 51.1637V40.7745C50 40.2963 49.6269 39.9087 49.1667 39.9087H41.6667V38.1771H49.1667C49.6269 38.1771 50 37.7895 50 37.3114V26.9222C50 26.444 49.6269 26.0564 49.1667 26.0564ZM48.3333 50.2979H20V41.6402H42.5V47.7006C42.5 48.1787 42.8731 48.5664 43.3333 48.5664C43.7935 48.5664 44.1667 48.1787 44.1667 47.7006V41.6402H48.3333V50.2979ZM40 39.9087H28.3333V38.1771H40V39.9087Z" fill="#21406C"/>
<path d="M24.9999 29.5194C23.6193 29.5194 22.4999 30.6824 22.4999 32.1167C22.4999 33.5515 23.6193 34.7141 24.9999 34.7141C26.3805 34.7141 27.4999 33.5515 27.4999 32.1167C27.4999 30.6824 26.3805 29.5194 24.9999 29.5194ZM24.9999 32.9825C24.5397 32.9825 24.1665 32.5949 24.1665 32.1167C24.1665 31.6386 24.5397 31.251 24.9999 31.251C25.4601 31.251 25.8332 31.6386 25.8332 32.1167C25.8332 32.5949 25.4601 32.9825 24.9999 32.9825Z" fill="#21406C"/>
<path d="M30.0001 34.7141C30.4603 34.7141 30.8334 34.3264 30.8334 33.8483V30.3852C30.8334 29.9071 30.4603 29.5194 30.0001 29.5194C29.5399 29.5194 29.1667 29.9071 29.1667 30.3852V33.8483C29.1667 34.3264 29.5399 34.7141 30.0001 34.7141Z" fill="#21406C"/>
<path d="M34.1667 33.8483V30.3852C34.1667 29.9071 33.7935 29.5194 33.3333 29.5194C32.8731 29.5194 32.5 29.9071 32.5 30.3852V33.8483C32.5 34.3264 32.8731 34.7141 33.3333 34.7141C33.7935 34.7141 34.1667 34.3264 34.1667 33.8483Z" fill="#21406C"/>
<path d="M37.4999 33.8483V30.3852C37.4999 29.9071 37.1268 29.5194 36.6666 29.5194C36.2064 29.5194 35.8333 29.9071 35.8333 30.3852V33.8483C35.8333 34.3264 36.2064 34.7141 36.6666 34.7141C37.1268 34.7141 37.4999 34.3264 37.4999 33.8483Z" fill="#21406C"/>
<path d="M40.8332 33.8483V30.3852C40.8332 29.9071 40.46 29.5194 39.9998 29.5194C39.5396 29.5194 39.1665 29.9071 39.1665 30.3852V33.8483C39.1665 34.3264 39.5396 34.7141 39.9998 34.7141C40.46 34.7141 40.8332 34.3264 40.8332 33.8483Z" fill="#21406C"/>
<path d="M26.6665 45.1033C26.2063 45.1033 25.8332 45.491 25.8332 45.9691C25.8332 46.4472 25.4601 46.8349 24.9999 46.8349C24.5397 46.8349 24.1665 46.4472 24.1665 45.9691C24.1665 45.491 24.5397 45.1033 24.9999 45.1033C25.4601 45.1033 25.8332 44.7157 25.8332 44.2375C25.8332 43.7594 25.4601 43.3718 24.9999 43.3718C23.6193 43.3718 22.4999 44.5347 22.4999 45.9691C22.4999 47.4039 23.6193 48.5664 24.9999 48.5664C26.3805 48.5664 27.4999 47.4039 27.4999 45.9691C27.4999 45.491 27.1267 45.1033 26.6665 45.1033Z" fill="#21406C"/>
<path d="M30.0001 43.3718C29.5399 43.3718 29.1667 43.7594 29.1667 44.2375V47.7006C29.1667 48.1787 29.5399 48.5664 30.0001 48.5664C30.4603 48.5664 30.8334 48.1787 30.8334 47.7006V44.2375C30.8334 43.7594 30.4603 43.3718 30.0001 43.3718Z" fill="#21406C"/>
<path d="M33.3333 43.3718C32.8731 43.3718 32.5 43.7594 32.5 44.2375V47.7006C32.5 48.1787 32.8731 48.5664 33.3333 48.5664C33.7935 48.5664 34.1667 48.1787 34.1667 47.7006V44.2375C34.1667 43.7594 33.7935 43.3718 33.3333 43.3718Z" fill="#21406C"/>
<path d="M36.6666 43.3718C36.2064 43.3718 35.8333 43.7594 35.8333 44.2375V47.7006C35.8333 48.1787 36.2064 48.5664 36.6666 48.5664C37.1268 48.5664 37.4999 48.1787 37.4999 47.7006V44.2375C37.4999 43.7594 37.1268 43.3718 36.6666 43.3718Z" fill="#21406C"/>
<path d="M39.9998 43.3718C39.5396 43.3718 39.1665 43.7594 39.1665 44.2375V47.7006C39.1665 48.1787 39.5396 48.5664 39.9998 48.5664C40.46 48.5664 40.8332 48.1787 40.8332 47.7006V44.2375C40.8332 43.7594 40.46 43.3718 39.9998 43.3718Z" fill="#21406C"/>
<path d="M6.31676 31.9524C6.42703 32.0031 6.54625 32.0293 6.66669 32.0302C7.05284 32.0242 7.38406 31.7431 7.46747 31.3517C7.55048 30.9598 7.36412 30.5603 7.01663 30.3853C3.09939 28.5202 0.961124 24.0725 1.8795 19.6984C2.79747 15.3244 6.52428 12.2054 10.8334 12.2041C11.6789 12.2037 12.5204 12.3259 13.3334 12.5677C13.7484 12.6924 14.1858 12.4667 14.3417 12.0486C16.4388 6.3974 21.6704 2.67308 27.5 2.68069C34.1398 2.71451 39.8771 7.50836 41.3334 14.2388C41.4079 14.5858 41.6789 14.8501 42.0166 14.9054C45.6535 15.5091 48.3305 18.7672 48.3334 22.5934C48.3297 22.8453 48.313 23.0968 48.2833 23.3467C48.2528 23.5792 48.3146 23.8151 48.4542 23.9994C48.5942 24.1837 48.8001 24.3012 49.0251 24.3249C49.2477 24.349 49.4702 24.2792 49.6424 24.1309C49.8149 23.9829 49.9227 23.769 49.9418 23.5373C49.9785 23.2241 49.998 22.9091 50 22.5934C50.0171 18.1292 47.0309 14.2586 42.8333 13.3037C41.0034 6.05414 34.714 0.986351 27.5 0.94915C21.2403 0.928436 15.5636 4.76267 13.0416 10.7153C12.3161 10.5533 11.5755 10.4718 10.8334 10.4726C5.74547 10.4781 1.34687 14.1614 0.260847 19.3256C-0.824765 24.4898 1.69436 29.7431 6.31676 31.9524Z" fill="#21406C"/>
<path d="M13.3333 32.6452C13.4021 32.6575 13.4729 32.6575 13.5417 32.6452C14.4918 32.3941 15.4032 32.0064 16.25 31.4937C16.4416 31.3778 16.5808 31.1876 16.637 30.9652C16.6931 30.7425 16.6618 30.5061 16.5499 30.3075C16.3184 29.8982 15.813 29.7592 15.4167 29.9959C14.6989 30.4279 13.9278 30.7572 13.125 30.9741C12.6648 31.0337 12.3385 31.47 12.3958 31.9481C12.4532 32.4262 12.8731 32.7653 13.3333 32.7057V32.6452Z" fill="#21406C"/>
<path d="M10.0001 38.1771C10.4603 38.1771 10.8335 37.7895 10.8335 37.3114V23.7191L12.6417 26.5328C12.7951 26.7746 13.0547 26.9209 13.3335 26.9222C13.4974 26.9243 13.6578 26.8727 13.7916 26.775C14.1721 26.5108 14.2762 25.9778 14.0252 25.5804L10.6919 20.3858C10.6919 20.3858 10.6919 20.3858 10.6499 20.3422C10.4921 20.1376 10.2528 20.0184 10.0001 20.0184C9.74744 20.0184 9.50818 20.1376 9.3503 20.3422C9.3503 20.3422 9.3503 20.3422 9.30839 20.3858L5.97506 25.5804C5.77161 25.9744 5.89043 26.4643 6.24931 26.7112C6.60779 26.9581 7.08834 26.8807 7.35852 26.5328L9.16679 23.7191V37.3114C9.16679 37.7895 9.53992 38.1771 10.0001 38.1771Z" fill="#21406C"/>
<path d="M31.2914 16.6801C30.9094 16.4193 30.3959 16.5275 30.1415 16.9227L28.3333 19.7365V9.60683C28.3333 9.12872 27.9602 8.74106 27.4999 8.74106C27.0397 8.74106 26.6666 9.12872 26.6666 9.60683V19.7365L24.8584 16.9227C24.7086 16.6332 24.4144 16.4565 24.0983 16.4666C23.7821 16.4768 23.4989 16.6716 23.3667 16.9701C23.2348 17.2685 23.2767 17.619 23.4749 17.8752L26.8082 23.0698C26.9632 23.3091 27.2224 23.4524 27.4999 23.4524C27.7775 23.4524 28.0366 23.3091 28.1917 23.0698L31.525 17.8752C31.7761 17.4778 31.6719 16.9443 31.2914 16.6801Z" fill="#21406C"/>
</svg>
